# xmcd
#
# Track frame offsets:
#	150
#	11990
#	24180
#	36057
#	47967
#	59367
#	72382
#	83610
#	96897
#	110565
#	122875
#	134730
#	146477
#	158042
#	170915
#	182642
#	195487
#	208600
#	220225
#	235140
#	247290
#	259640
#	273187
#	285100
#
# Disc length: 3970 seconds
#
# Revision: 0
# Processed by: cddbd v1.4PL0 Copyright (c) Steve Scherf et al.
# Submitted via: audiograbber 1.80
#
DISCID=640f8018
DTITLE=little jimmy dickens - country boy disc 2
DYEAR=1997
DGENRE=Country
TTITLE0=when that love bug bites you 1950
TTITLE1=waitin' for the tide to change 1997
TTITLE2=cold feet 1951
TTITLE3=out of business 1950
TTITLE4=bessie the heifer 1951
TTITLE5=lola lee 1952
TTITLE6=i'm little but i'm loud 1951
TTITLE7=the bible on the table (and the flag upon the wall) 1951
TTITLE8=what about you 1951
TTITLE9=the galvanized washing tub 1951
TTITLE10=he turned up his nose 1997
TTITLE11=it may be silly (but ain't it fun) 1951
TTITLE12=i wish you didn't love me so much 1997
TTITLE13=bring your broken heart to me 1997
TTITLE14=i sure would like to set a spell with you 1997
TTITLE15=on the sea of broken dreams 1997
TTITLE16=poor little darlin' 1951
TTITLE17=they don't know nothin' at all 1952
TTITLE18=i've just got to see you once more 1951
TTITLE19=they locked god outside the iron curtain 1952
TTITLE20=brother, do you take time to pray 1952
TTITLE21=hot diggity dog 1952
TTITLE22=waitress, waitress 1952
TTITLE23=on the sea of broken dreams (alt) 1997
EXTD=
EXTT0=
EXTT1=
EXTT2=
EXTT3=
EXTT4=
EXTT5=
EXTT6=
EXTT7=
EXTT8=
EXTT9=
EXTT10=
EXTT11=
EXTT12=
EXTT13=
EXTT14=
EXTT15=
EXTT16=
EXTT17=
EXTT18=
EXTT19=
EXTT20=
EXTT21=
EXTT22=
EXTT23=
PLAYORDER=
